
        <svg xmlns="http://www.w3.org/2000/svg" xmlns:xlink="http://www.w3.org/1999/xlink" version="1.1" width="3187.5" height="1360.546558231616" viewBox="0 0 3187.5 1360.546558231616">
			
			<g transform="scale(9.375) translate(10, 10)">
				<defs id="SvgjsDefs1464"/><g id="SvgjsG1465" featureKey="symbolFeature-0" transform="matrix(1.322506308471731,0,0,1.322506308471731,-16.12266681895723,-3.56283231790036)" fill="#fff"><path xmlns="http://www.w3.org/2000/svg" d="M12.194,54.046c0.401-2.11,0.692-4.249,1.222-6.326C17.01,33.632,28.94,23.03,43.362,21.149  c10.714-1.397,20.204,1.543,28.583,8.295c0.866,0.698,1.287,1.342,0.712,2.4c-0.166,0.306-0.227,0.67-0.346,1.038  c-1.333-1.071-2.578-2.163-3.914-3.129c-13.646-9.875-31.826-8.593-43.832,3.191c-5.719,5.614-8.898,12.54-9.809,20.5  c-0.759,6.634,0.365,12.962,3.262,18.953c1.712,3.541,3.997,6.664,7.393,8.808c2.539,1.603,5.117,1.668,7.826,0.282  c5.585-2.857,9.275-7.261,11.246-13.19c0.541-1.628,1.216-3.224,1.971-4.766c1.902-3.886,6.421-5.14,9.491-4.57  c2.628,0.488,5.208,1.234,7.927,1.894c-0.237,0.822-0.441,1.534-0.676,2.349c-2.098-0.569-4.11-1.213-6.167-1.637  c-1.209-0.249-2.509-0.316-3.734-0.17c-2.382,0.283-4.115,1.624-5.059,3.844c-0.906,2.133-1.697,4.314-2.57,6.461  c-2.321,5.71-6.546,9.586-11.994,12.2c-3.895,1.869-7.519,1.001-10.796-1.541c-4.667-3.619-7.362-8.569-9.025-14.102  c-0.692-2.303-0.994-4.722-1.479-7.088c-0.038-0.187-0.12-0.366-0.181-0.548C12.194,58.431,12.194,56.238,12.194,54.046z"/><path xmlns="http://www.w3.org/2000/svg" d="M72.338,60.688c-1.847-0.536-3.588-1.041-5.482-1.591c5.669-18.799,11.325-37.55,17.01-56.403  c1.318,0.367,2.551,0.711,3.939,1.097C82.647,22.768,77.501,41.697,72.338,60.688z"/><path xmlns="http://www.w3.org/2000/svg" d="M54.617,97.306c0.503-2.15,1.138-4.122,1.397-6.142c0.409-3.185,0.604-6.4,0.814-9.607c0.15-2.281,1.378-3.808,3.207-4.959  c0.21-0.132,0.571-0.139,0.825-0.07c2.204,0.602,4.409,1.206,6.589,1.889c0.36,0.113,0.736,0.559,0.873,0.935  c1.088,2.989,0.689,5.861-1.117,8.421c-1.058,1.501-2.348,2.88-3.716,4.112C60.909,94.213,57.852,95.822,54.617,97.306z"/><path xmlns="http://www.w3.org/2000/svg" d="M23.65,42.132c1.217,0.286,2.47,0.473,3.638,0.895c0.671,0.242,1.343,0.762,1.767,1.339c0.685,0.933,1.508,1.521,2.59,1.883  c1.655,0.555,1.847,1.197,0.86,2.633c-0.852,1.239-1.52,2.637-3.186,3.103c-0.481,0.134-0.823,0.745-1.244,1.119  c-0.855,0.759-1.553,0.873-2.378,0.082c-1.138-1.091-2.45-1.468-3.961-1.536c-1.056-0.047-1.518-0.526-1.317-1.55  c0.296-1.507,0.057-2.772-0.864-4.013c-0.246-0.332-0.161-1.129,0.068-1.554C20.458,42.981,21.749,42.097,23.65,42.132z"/><path xmlns="http://www.w3.org/2000/svg" d="M57.736,37.838c-0.123-0.026-0.443-0.028-0.699-0.158c-1.41-0.718-2.809-1.46-4.203-2.209  c-0.436-0.235-0.82-0.584-1.273-0.767c-1.545-0.624-2.112-1.936-2.171-3.399c-0.057-1.409,0.728-2.579,1.967-3.237  c0.856-0.455,1.852-0.728,2.816-0.865c0.461-0.066,1.01,0.34,1.49,0.588c0.81,0.418,1.579,0.914,2.397,1.314  c1.335,0.654,2.702,1.196,4.219,1.34c0.293,0.028,0.609,0.661,0.755,1.072c0.094,0.265-0.088,0.637-0.175,0.954  c-0.312,1.143-0.664,2.276-0.949,3.425c-0.316,1.277-0.721,1.678-2.016,1.798C59.234,37.754,58.572,37.783,57.736,37.838z"/><path xmlns="http://www.w3.org/2000/svg" d="M24.058,58.07c0.728,0.498,1.319,0.862,1.864,1.286c0.747,0.582,1.41,1.282,2.195,1.801c1.287,0.85,1.941,2.151,2.556,3.452  c0.165,0.349-0.115,1.015-0.365,1.43c-0.538,0.892-1.187,1.717-1.796,2.565c-0.134,0.186-0.274,0.375-0.443,0.528  c-0.634,0.574-1.294,1.12-1.92,1.703c-0.782,0.73-1.352,0.819-2.197,0.17c-0.629-0.483-1.25-1.007-1.748-1.617  c-0.281-0.344-0.313-0.895-0.442-1.357c-0.263-0.936-0.503-1.879-0.777-2.812c-0.37-1.262-0.819-2.505-1.112-3.784  c-0.087-0.381,0.105-1.062,0.398-1.251C21.445,59.425,22.709,58.805,24.058,58.07z"/><path xmlns="http://www.w3.org/2000/svg" d="M43.662,38.301c-0.014,1.846-2.247,3.383-3.944,2.851c-1.098-0.344-2.258-0.527-3.308-0.976  c-0.811-0.347-1.547-0.934-2.219-1.525c-0.734-0.644-1.302-1.478-2.04-2.115c-1.013-0.873-1.124-1.53-0.37-2.64  c0.515-0.758,0.966-1.566,1.371-2.389c0.528-1.074,1.077-1.361,2.229-1.035c1.113,0.316,2.223,0.641,3.339,0.943  c1.12,0.302,1.931,0.91,2.417,2.014c0.272,0.618,0.688,1.236,1.194,1.676C43.365,36.005,43.555,37.175,43.662,38.301z"/><path xmlns="http://www.w3.org/2000/svg" d="M71.659,62.906c-0.04,0.283-0.046,0.449-0.088,0.605c-1.136,4.182-2.276,8.363-3.447,12.659  c-1.975-0.565-3.897-1.114-5.907-1.688c1.325-4.395,2.63-8.722,3.967-13.155C68.036,61.861,69.804,62.371,71.659,62.906z"/><path xmlns="http://www.w3.org/2000/svg" d="M54.866,44.888c2.415,0.18,4.559,0.861,6.296,2.532c1.59,1.53,2.395,3.372,1.661,5.577c-0.742,2.231-2.569,3.189-4.73,3.383  c-3.637,0.327-6.559-1.12-8.621-4.115c-1.788-2.597-0.832-5.518,2.131-6.619C52.641,45.261,53.775,45.134,54.866,44.888z   M54.786,47.273c-0.882,0.241-1.805,0.388-2.637,0.746c-1.181,0.508-1.442,1.457-0.879,2.623c1.144,2.37,4.745,3.975,7.278,3.244  c2.246-0.648,2.843-2.579,1.324-4.35C58.549,47.993,56.791,47.448,54.786,47.273z"/><path xmlns="http://www.w3.org/2000/svg" d="M74.278,62.451c0.19-0.731,0.356-1.471,0.586-2.19c0.071-0.221,0.31-0.391,0.482-0.576c0.04-0.043,0.121-0.049,0.183-0.072  c5.509-2.08,6.592-5.863,5.535-11.477c-0.225-1.196-0.632-2.364-1.024-3.521c-0.588-1.733-0.577-2.158,0.637-4.738  c0.705,1.8,1.487,3.573,2.097,5.405c0.964,2.895,1.37,5.872,0.761,8.907c-0.566,2.817-2.081,5.008-4.616,6.39  c-1.443,0.787-2.974,1.412-4.465,2.11C74.395,62.611,74.336,62.531,74.278,62.451z"/></g><g id="SvgjsG1466" featureKey="nameFeature-0" transform="matrix(1.5156107140375186,0,0,1.5156107140375186,119.69687742357279,18.661415512785364)" fill="#fff"><path d="M6.16 19.32 l4.36 14.12 l0.08 0 l4.36 -14.12 l5.64 0 l-7 20.68 l-6.32 0 l-7.08 -20.68 l5.96 0 z M29.16 11.440000000000001 l0 4.68 l-5.68 0 l0 -4.68 l5.68 0 z M29.16 19.32 l0.000039062 21.84 c0 1.4933 -0.22 2.6666 -0.66 3.52 s-1.16 1.5 -2.16 1.94 s-2.4733 0.66 -4.42 0.66 c-0.74668 0 -1.3734 -0.05332 -1.88 -0.16 l0 -4.68 c0.32 0.10668 0.74668 0.16 1.28 0.16 c0.82668 0 1.4 -0.16668 1.72 -0.5 s0.46668 -0.79332 0.44 -1.38 l0 -21.4 l5.68 0 z M40.28 11.440000000000001 l0 15.32 l7.16 -7.44 l6.72 0 l-7.8 7.6 l8.68 13.08 l-6.88 0 l-5.68 -9.24 l-2.2 2.12 l0 7.12 l-5.68 0 l0 -28.56 l5.68 0 z M63.88 11.440000000000001 l11.92 19.16 l0.08 0 l0 -19.16 l5.88 0 l0 28.56 l-6.28 0 l-11.88 -19.12 l-0.08 0 l0 19.12 l-5.88 0 l0 -28.56 l6.24 0 z M107.36000000000001 11.440000000000001 l0 5.28 l-13.8 0 l0 6.6 l11.96 0 l0 4.88 l-11.96 0 l0 11.8 l-6.28 0 l0 -28.56 l20.08 0 z M132.16000000000003 11.440000000000001 l0 5.28 l-8.56 0 l0 23.28 l-6.28 0 l0 -23.28 l-8.56 0 l0 -5.28 l23.4 0 z"/></g>
			</g>
		</svg>
	