<?xml version="1.0" standalone="no"?>
<!DOCTYPE svg PUBLIC "-//W3C//DTD SVG 20010904//EN"
 "http://www.w3.org/TR/2001/REC-SVG-20010904/DTD/svg10.dtd">
<svg version="1.0" xmlns="http://www.w3.org/2000/svg"
 width="1884.000000pt" height="1936.000000pt" viewBox="0 0 1884.000000 1936.000000"
 preserveAspectRatio="xMidYMid meet">

<g transform="translate(0.000000,1936.000000) scale(0.100000,-0.100000)"
fill="#000000" stroke="none">
<path d="M11846 16152 c-6 -10 -12 -29 -1086 -3587 -501 -1661 -912 -3029
-913 -3039 -2 -17 39 -31 333 -117 184 -54 335 -97 336 -96 5 8 1698 6249
1702 6272 2 17 29 121 59 233 30 112 53 205 51 207 -1 1 -104 30 -228 64 -124
34 -230 64 -237 66 -7 2 -14 1 -17 -3z"/>
<path d="M7240 14243 c-905 -65 -1716 -366 -2410 -894 -562 -427 -1022 -989
-1321 -1614 -195 -409 -291 -722 -394 -1290 l-55 -305 2 -423 c3 -394 5 -428
25 -517 13 -52 41 -194 63 -315 87 -475 187 -793 369 -1170 238 -492 569 -892
964 -1163 348 -238 713 -301 1072 -185 220 71 575 275 823 473 329 263 586
583 760 948 29 63 120 283 202 490 81 208 164 415 184 461 82 188 209 329 368
405 128 61 197 76 373 83 229 8 399 -24 935 -176 96 -28 178 -47 181 -43 11
14 82 272 76 278 -8 9 -681 176 -862 215 -360 77 -676 23 -955 -164 -90 -60
-201 -170 -260 -257 -77 -113 -222 -438 -311 -697 -228 -660 -576 -1128 -1100
-1476 -343 -227 -554 -305 -804 -294 -216 9 -377 76 -614 255 -307 231 -533
518 -749 952 -254 508 -398 1015 -443 1565 -15 183 -6 646 16 825 75 614 246
1155 516 1633 84 149 249 392 365 537 212 265 581 612 870 817 923 655 2070
907 3174 697 546 -103 1067 -313 1545 -622 139 -90 260 -180 472 -354 100 -81
186 -148 191 -148 6 0 15 21 21 46 7 26 20 63 30 83 66 130 27 197 -224 387
-752 568 -1559 886 -2429 954 -117 9 -555 11 -666 3z"/>
<path d="M8175 13446 c-362 -83 -534 -274 -497 -553 22 -161 101 -281 230
-343 37 -18 86 -46 110 -63 44 -30 379 -210 545 -294 88 -44 95 -46 175 -44
114 1 292 19 333 33 90 30 112 66 170 276 22 81 58 209 80 284 45 157 46 176
19 233 -32 65 -55 81 -145 95 -177 27 -378 112 -733 309 -148 83 -183 91 -287
67z"/>
<path d="M5762 13054 c-43 -22 -66 -54 -137 -189 -32 -60 -84 -150 -116 -200
-68 -106 -79 -132 -79 -188 0 -58 23 -92 154 -226 360 -372 389 -388 873 -512
82 -21 99 -22 157 -12 120 20 223 87 286 185 57 87 67 143 46 264 -23 138 -56
203 -158 312 -63 67 -98 116 -137 190 -57 109 -115 175 -189 215 -62 34 -530
167 -607 173 -44 4 -69 0 -93 -12z"/>
<path d="M11511 11804 c-104 -236 -105 -287 -21 -551 115 -357 140 -485 147
-763 4 -173 3 -207 -17 -300 -40 -193 -108 -325 -235 -456 -45 -46 -118 -107
-168 -139 -86 -56 -250 -138 -301 -151 -49 -12 -81 -63 -114 -185 -46 -164
-48 -177 -28 -185 19 -7 391 159 541 242 345 192 531 461 602 874 23 135 23
438 0 590 -23 147 -74 342 -130 500 -56 159 -230 600 -237 600 -3 0 -20 -35
-39 -76z"/>
<path d="M4333 11595 c-192 -42 -375 -233 -377 -393 -1 -49 4 -64 32 -105 83
-119 108 -217 97 -381 -10 -167 -9 -193 9 -221 26 -39 68 -54 178 -65 199 -20
314 -65 445 -175 43 -36 94 -70 113 -75 75 -20 144 15 251 128 52 54 76 72
126 90 123 45 194 113 332 320 164 245 153 293 -92 390 -42 17 -101 47 -130
65 -49 32 -75 57 -210 203 -93 100 -164 130 -449 194 -193 43 -229 46 -325 25z"/>
<path d="M8206 11240 c-270 -56 -378 -102 -486 -210 -73 -72 -112 -138 -135
-225 -42 -164 5 -333 144 -512 246 -318 566 -468 961 -450 304 14 507 127 609
338 121 252 80 498 -121 723 -154 172 -389 295 -648 340 -151 26 -177 26 -324
-4z m359 -304 c157 -43 253 -94 357 -193 218 -208 197 -453 -47 -564 -256
-116 -648 -10 -874 237 -117 129 -161 273 -110 364 40 70 114 108 329 166 105
29 212 26 345 -10z"/>
<path d="M4339 9531 c-266 -145 -294 -164 -313 -211 -29 -72 -27 -80 97 -490
35 -118 81 -280 102 -360 57 -222 59 -226 144 -310 152 -151 252 -203 331
-170 17 7 102 76 190 154 148 130 169 153 275 301 132 184 185 280 185 337 0
68 -120 283 -211 377 -23 23 -69 63 -103 88 -33 24 -112 88 -175 141 -117 100
-316 243 -335 241 -6 -1 -90 -44 -187 -98z"/>
<path d="M9509 8418 c-135 -447 -245 -814 -244 -816 1 -1 165 -49 364 -106
239 -68 364 -100 367 -92 13 38 425 1562 430 1593 l5 38 -328 94 c-180 52
-333 96 -338 98 -6 2 -114 -338 -256 -809z"/>
<path d="M8950 7308 c-84 -55 -197 -167 -245 -242 -53 -84 -93 -200 -105 -309
-6 -50 -19 -225 -31 -387 -34 -505 -70 -838 -109 -1028 -11 -54 -47 -203 -80
-332 -32 -129 -58 -235 -57 -237 2 -1 88 40 192 91 469 229 751 422 1040 711
290 289 440 519 506 770 33 125 34 367 2 495 -56 222 -76 245 -270 305 -230
72 -718 205 -749 205 -17 0 -55 -17 -94 -42z"/>
</g>
</svg>
